<svg width="64" height="60" viewBox="0 0 64 60" fill="none" xmlns="http://www.w3.org/2000/svg">
<g clip-path="url(#clip0_38_25409)">
<path d="M19.6547 4.80667L37.8814 5.8556L37.7311 5.89056L49.7193 0.750806L49.8697 0.680878L50.02 0.715842L56.559 2.63888L56.7845 2.70881L56.8597 2.95356L57.3858 4.59688L57.2355 4.35213L63.4739 9.10728L63.8121 9.35203L63.6242 9.73663L61.7076 13.6526L61.5197 14.0372L61.0311 13.9673L56.7845 13.303L57.461 13.0233L55.3564 16.0302L55.2813 16.1701L55.131 16.24L52.0869 17.8484L52.2372 16.7994L57.724 21.7993L57.3482 21.6245L59.34 22.0441L59.6782 22.114L59.8285 22.4287L60.3923 23.3377L61.1063 24.3867L59.9037 24.8412L55.2061 24.8762H54.9806L54.7551 24.7363L46.9008 20.121L47.3517 20.2609L42.9924 20.0861L43.8943 19.5266L42.6542 22.6035L42.0904 21.4846L44.0822 22.114L44.4204 22.2189L44.6083 22.5336L45.36 23.7923L46.1492 25.1209H44.4956L39.1216 25.1559H38.182L38.1069 24.2818L37.6183 18.6525L38.3324 19.4917L30.5156 17.0791L31.6054 16.8694L28.0728 19.9112L28.2231 18.5127L30.8162 21.8343L30.3277 21.4497L32.2819 22.1839L32.7328 22.3588L32.9207 22.8133L33.2965 23.6874L33.973 25.2258H32.1691L28.599 25.2608H28.1104L27.7346 24.9461L21.7217 19.8413L21.0452 19.2819L21.3459 18.5127L22.323 15.9952L23.9389 17.6036L19.4668 18.7574L15.0323 19.9462L15.6336 19.5966L11.8755 23.1979L11.65 21.2399L13.0029 22.079L13.4163 22.3238L13.5667 22.7434L13.9425 23.7224L14.5813 25.4006H12.6647L9.09455 25.3657H8.64358L8.26778 24.8063L7.02761 22.9881L6.4639 22.149L6.76455 21.6595L11.387 14.7715L11.65 14.3869L12.101 14.282L15.4833 13.4429L14.8068 13.9324L19.542 7.14928L19.9178 8.51288L18.4146 7.67374L19.3917 7.7087C18.377 8.16324 17.4375 8.47792 16.498 8.86253L13.6042 9.91146C11.6876 10.6107 9.77101 11.2751 7.81681 11.9394L7.59132 12.0093L7.40342 11.9743L3.19438 11.31L0.300659 10.7156L3.11921 10.0513L7.29068 9.14224L7.47858 9.10728L7.6289 9.14224L9.50794 9.73663L9.09455 9.7716L14.3934 7.25417L17.0241 6.03042L19.6547 4.80667ZM19.6923 5.05142L17.1744 6.48495L14.6565 7.88353L9.62068 10.6457L9.43278 10.7506L9.2073 10.6807L7.29068 10.1912H7.59132L3.45744 11.31L3.38228 10.0163L7.6289 10.4709L7.21552 10.5058L12.8902 8.26813L15.7088 7.11431C16.6483 6.7297 17.5878 6.3451 18.4522 5.92552L18.9407 5.68077L19.4293 5.96049L20.9325 6.76467L21.872 7.25417L21.3083 8.12828L16.7986 15.0162L16.5731 15.3659L16.1222 15.5057L12.7775 16.4148L13.4915 15.9253L9.01939 22.9182V21.6245L10.2971 23.4077L9.16971 22.8482L12.7399 22.8133L11.4621 24.4916L11.0863 23.5126L11.65 24.1419L10.2596 23.3377L8.86907 22.4986L10.0341 21.3797L13.7921 17.7784L14.0552 17.5337L14.431 17.4288L18.7904 16.3449L23.2625 15.226L25.7804 14.5967L24.8785 16.8344L23.8638 19.3518L23.488 18.0232L29.5009 23.1979L28.6741 22.9182L32.2443 22.9531L31.1169 24.4916L30.7411 23.6175L31.3799 24.2468L29.4633 23.4776L29.1627 23.3377L28.9372 23.058L26.4193 19.7015L25.818 18.9322L26.5696 18.3029L30.1398 15.3309L30.6283 14.9114L31.2296 15.1211L39.0088 17.6386L39.6853 17.8484L39.7229 18.4777L40.1362 24.107L39.1216 23.2329L44.4956 23.2678L43.6688 24.5965L42.9172 23.3377L43.4433 23.7573L41.4516 23.093L40.5496 22.7783L40.8879 21.9392L42.1656 18.8973L42.3911 18.3029L43.0675 18.3379L47.4269 18.5826H47.6524L47.8403 18.6875L55.6195 23.4426L55.1685 23.3377L59.8661 23.3727L59.1521 24.4216L58.4005 23.058L58.9266 23.4426L56.9348 22.9881L56.7093 22.9531L56.559 22.8133L51.1474 17.7435L50.4709 17.1141L51.2977 16.6945L54.3793 15.1211L54.1539 15.3309L56.296 12.324L56.5214 11.9743L56.9348 12.0443L61.1815 12.7785L60.505 13.0932L62.4968 9.21217L62.6471 9.84153L56.5214 4.98149L56.4087 4.8766L56.3711 4.73674L55.8826 3.09342L56.1832 3.40809L49.7193 1.38016H50.02L37.9566 6.38006L37.8814 6.41502H37.8062L19.6923 5.05142Z" fill="white"/>
<path d="M39.2718 59.0712H17.024V37.4283L9.01935 24.9461H41.0006C41.1885 24.9461 46.2994 24.9111 51.5983 26.8691C56.4838 28.6873 62.3464 32.5683 62.7598 40.8898C62.9853 45.4701 61.7827 51.7637 54.7175 55.7147C50.6588 57.9874 46.5249 58.4419 46.0364 58.4769C45.6982 58.5468 42.7293 59.0712 39.2718 59.0712ZM18.0011 58.4769H39.2718C42.7293 58.4769 45.8109 57.8825 45.8485 57.8825H45.9236C45.9612 57.8825 50.1327 57.4979 54.1538 55.2252C59.4903 52.2182 62.1209 47.2533 61.8203 40.8898C61.4821 34.4564 57.9119 29.911 51.1474 27.3936C46.1115 25.5055 41.0757 25.5405 41.0006 25.5405H10.4474L18.0011 37.3234V58.4769Z" fill="white" stroke="white" stroke-width="3" stroke-miterlimit="10"/>
<path d="M34.1985 55.8196L24.3899 37.8829V29.002H39.2343C45.9612 29.002 48.6295 30.7851 48.7422 30.8551L48.9301 30.9949L34.1985 55.8196ZM25.367 37.743L34.236 54.0014L47.8403 31.1348C47.1262 30.7502 44.5332 29.5963 39.2719 29.5963H25.367V37.743Z" fill="white" stroke="white" stroke-width="3" stroke-miterlimit="10"/>
<path d="M25.4797 39.736L24.3899 37.8479H24.3147L17.4374 25.8202L18.3394 25.6454L26.2689 39.6311L25.4797 39.736Z" fill="white" stroke="white" stroke-width="3" stroke-miterlimit="10"/>
<path d="M30.3652 58.8964L17.0616 37.4983L17.9636 37.2885L31.2672 58.6866L30.3652 58.8964Z" fill="white" stroke="white" stroke-width="3" stroke-miterlimit="10"/>
<path d="M24.202 55.2601L24.3147 47.568L29.0123 55.2252L24.202 55.2601ZM25.2166 50.7847L25.1791 54.6657H27.5842L25.2166 50.7847Z" fill="white" stroke="white" stroke-width="3" stroke-miterlimit="10"/>
<path d="M38.5954 58.7915L37.6935 58.5818L52.4251 35.0158L52.4627 34.9459C50.6213 32.4285 48.1409 31.3096 48.1409 31.3096L48.7046 30.8201C48.8174 30.8551 51.4105 32.0089 53.3646 34.7011C53.4398 34.841 53.5526 34.9459 53.6277 35.0857C54.943 37.0437 55.5443 39.3164 55.4316 41.7639C55.0934 49.0015 51.7487 51.3791 49.9448 52.6378C49.7945 52.7427 49.6817 52.8127 49.569 52.9175L49.5314 52.9525C47.7651 53.9315 44.5332 54.7007 41.1885 54.9105C40.1738 56.4489 38.5954 58.7915 38.5954 58.7915ZM52.9888 35.7501L41.414 54.2812C44.7962 54.0364 47.5396 53.2322 48.8174 52.498C48.9301 52.428 49.0429 52.3231 49.1932 52.2532C50.9219 51.0295 54.0787 48.7918 54.4169 41.729C54.5297 39.5262 54.0787 37.5332 52.9888 35.7501Z" fill="white" stroke="white" stroke-width="3" stroke-miterlimit="10"/>
<path d="M56.6795 29.2811L55.7529 29.0751L58.4942 25.2294H51.9691L50.9266 26.7402L50 26.4998L51.2741 24.6456H60L56.6795 29.2811Z" fill="white" stroke="white" stroke-width="3" stroke-miterlimit="10"/>
<path d="M10.4474 25.5405L30.6283 58.2671L38.5954 58.7916L52.4251 35.0158L48.1033 31.2746L36.0399 51.6588L34.687 53.442L34.2361 54.0014L17.4375 25.8202L10.4474 25.5405Z" fill="white"/>
<path d="M50.3582 26.7992L52.2748 25.5055L59.3024 25.086L55.9577 29.4215L50.3582 26.7992Z" fill="white"/>
</g>
<defs>
<clipPath id="clip0_38_25409">
<rect width="64" height="59.3344" fill="white" transform="translate(0 0.541016)"/>
</clipPath>
</defs>
</svg>
